<?xml version="1.0" encoding="UTF-8" standalone="no"?>
<!DOCTYPE svg PUBLIC "-//W3C//DTD SVG 1.1//EN"
 "http://www.w3.org/Graphics/SVG/1.1/DTD/svg11.dtd">
<!-- Generated by graphviz version 2.36.0 (20140111.2315)
 -->
<!-- Title: DRA Pages: 1 -->
<svg width="246pt" height="374pt"
 viewBox="0.00 0.00 246.00 374.00" xmlns="http://www.w3.org/2000/svg" xmlns:xlink="http://www.w3.org/1999/xlink">
<g id="graph0" class="graph" transform="scale(1 1) rotate(0) translate(4 370)">
<title>DRA</title>
<polygon fill="white" stroke="none" points="-4,4 -4,-370 242,-370 242,4 -4,4"/>
<!-- type -->
<g id="node1" class="node"><title>type</title>
<ellipse fill="none" stroke="black" cx="29" cy="-317" rx="29.3479" ry="18"/>
<text text-anchor="middle" x="29" y="-313.3" font-family="Helvetica,sans-Serif" font-size="14.00">DRA</text>
</g>
<!-- 0 -->
<g id="node2" class="node"><title>0</title>
<polygon fill="none" stroke="black" points="157,-366 77,-366 77,-268 157,-268 157,-366"/>
<polygon fill="none" stroke="black" points="87,-338 87,-360 111,-360 111,-338 87,-338"/>
<text text-anchor="start" x="95" y="-345.3" font-family="Helvetica,sans-Serif" font-size="14.00">0</text>
<polygon fill="green" stroke="none" points="113,-338 113,-360 147,-360 147,-338 113,-338"/>
<text text-anchor="start" x="120" y="-345.3" font-family="Helvetica,sans-Serif" font-size="14.00"> +0</text>
<polygon fill="none" stroke="black" points="91,-311 91,-332 143,-332 143,-311 91,-311"/>
<text text-anchor="start" x="96.5" y="-317.8" font-family="Helvetica,sans-Serif" font-size="14.00">0 {0,2}</text>
<polygon fill="none" stroke="black" points="91,-278 91,-309 143,-309 143,-278 91,-278"/>
<polygon fill="none" stroke="black" points="96,-283 96,-304 138,-304 138,-283 96,-283"/>
<text text-anchor="start" x="100.5" y="-289.8" font-family="Helvetica,sans-Serif" font-size="14.00">1 {2}!</text>
</g>
<!-- 1 -->
<g id="node3" class="node"><title>1</title>
<polygon fill="none" stroke="black" points="92,-216 12,-216 12,-118 92,-118 92,-216"/>
<polygon fill="none" stroke="black" points="22,-188 22,-210 46,-210 46,-188 22,-188"/>
<text text-anchor="start" x="30" y="-195.3" font-family="Helvetica,sans-Serif" font-size="14.00">1</text>
<polygon fill="green" stroke="none" points="48,-188 48,-210 82,-210 82,-188 48,-188"/>
<text text-anchor="start" x="55" y="-195.3" font-family="Helvetica,sans-Serif" font-size="14.00"> +0</text>
<polygon fill="none" stroke="black" points="26,-161 26,-182 78,-182 78,-161 26,-161"/>
<text text-anchor="start" x="31.5" y="-167.8" font-family="Helvetica,sans-Serif" font-size="14.00">0 {0,1}</text>
<polygon fill="none" stroke="black" points="26,-128 26,-159 78,-159 78,-128 26,-128"/>
<polygon fill="none" stroke="black" points="31,-133 31,-154 73,-154 73,-133 31,-133"/>
<text text-anchor="start" x="35.5" y="-139.8" font-family="Helvetica,sans-Serif" font-size="14.00">1 {1}!</text>
</g>
<!-- 0&#45;&gt;1 -->
<g id="edge1" class="edge"><title>0&#45;&gt;1</title>
<path fill="none" stroke="black" d="M76.7764,-277.17C70.1516,-268.823 64.1143,-259.602 60,-250 56.796,-242.522 54.6208,-234.32 53.1754,-226.084"/>
<polygon fill="black" stroke="black" points="56.6244,-225.476 51.7542,-216.067 49.6938,-226.46 56.6244,-225.476"/>
<text text-anchor="middle" x="68" y="-238.3" font-family="Helvetica,sans-Serif" font-size="14.00"> !a</text>
</g>
<!-- 3 -->
<g id="node4" class="node"><title>3</title>
<polygon fill="grey" stroke="black" points="176,-199.5 110,-199.5 110,-134.5 176,-134.5 176,-199.5"/>
<polygon fill="none" stroke="black" points="120,-171 120,-193 139,-193 139,-171 120,-171"/>
<text text-anchor="start" x="125.5" y="-178.3" font-family="Helvetica,sans-Serif" font-size="14.00">3</text>
<polygon fill="red" stroke="none" points="141,-171 141,-193 166,-193 166,-171 141,-171"/>
<text text-anchor="start" x="145" y="-178.3" font-family="Helvetica,sans-Serif" font-size="14.00"> &#45;0</text>
<polygon fill="none" stroke="black" points="124,-144 124,-165 162,-165 162,-144 124,-144"/>
<text text-anchor="start" x="128.5" y="-150.8" font-family="Helvetica,sans-Serif" font-size="14.00">0 {0}</text>
</g>
<!-- 0&#45;&gt;3 -->
<g id="edge2" class="edge"><title>0&#45;&gt;3</title>
<path fill="none" stroke="black" d="M125.441,-267.949C128.729,-249.235 132.462,-227.985 135.638,-209.906"/>
<polygon fill="black" stroke="black" points="139.104,-210.403 137.387,-199.949 132.21,-209.192 139.104,-210.403"/>
<text text-anchor="middle" x="136" y="-238.3" font-family="Helvetica,sans-Serif" font-size="14.00"> a</text>
</g>
<!-- 1&#45;&gt;0 -->
<g id="edge4" class="edge"><title>1&#45;&gt;0</title>
<path fill="none" stroke="black" d="M73.1089,-216.063C79.0427,-229.574 85.5564,-244.405 91.7075,-258.411"/>
<polygon fill="black" stroke="black" points="88.6706,-260.2 95.8964,-267.949 95.0797,-257.385 88.6706,-260.2"/>
<text text-anchor="middle" x="92" y="-238.3" font-family="Helvetica,sans-Serif" font-size="14.00"> a</text>
</g>
<!-- 2 -->
<g id="node5" class="node"><title>2</title>
<polygon fill="none" stroke="black" points="182,-65.5 104,-65.5 104,-0.5 182,-0.5 182,-65.5"/>
<polygon fill="none" stroke="black" points="114,-37 114,-59 139,-59 139,-37 114,-37"/>
<text text-anchor="start" x="122.5" y="-44.3" font-family="Helvetica,sans-Serif" font-size="14.00">2</text>
<polygon fill="red" stroke="none" points="141,-37 141,-59 172,-59 172,-37 141,-37"/>
<text text-anchor="start" x="148" y="-44.3" font-family="Helvetica,sans-Serif" font-size="14.00"> &#45;0</text>
<polygon fill="none" stroke="black" points="118,-10 118,-31 168,-31 168,-10 118,-10"/>
<text text-anchor="start" x="122.5" y="-16.8" font-family="Helvetica,sans-Serif" font-size="14.00">0 {0,1}</text>
</g>
<!-- 1&#45;&gt;2 -->
<g id="edge3" class="edge"><title>1&#45;&gt;2</title>
<path fill="none" stroke="black" d="M85.1105,-117.972C95.0424,-103.565 105.827,-87.9216 115.366,-74.0848"/>
<polygon fill="black" stroke="black" points="118.331,-75.9498 121.125,-65.7301 112.568,-71.9767 118.331,-75.9498"/>
<text text-anchor="middle" x="116" y="-88.3" font-family="Helvetica,sans-Serif" font-size="14.00"> !a</text>
</g>
<!-- 3&#45;&gt;3 -->
<g id="edge8" class="edge"><title>3&#45;&gt;3</title>
<path fill="none" stroke="black" d="M176.354,-180.845C186.278,-180.431 194,-175.816 194,-167 194,-161.49 190.984,-157.621 186.299,-155.393"/>
<polygon fill="black" stroke="black" points="186.879,-151.936 176.354,-153.155 185.342,-158.765 186.879,-151.936"/>
<text text-anchor="middle" x="200" y="-163.3" font-family="Helvetica,sans-Serif" font-size="14.00"> a</text>
</g>
<!-- 3&#45;&gt;2 -->
<g id="edge7" class="edge"><title>3&#45;&gt;2</title>
<path fill="none" stroke="black" d="M143,-134.383C143,-116.878 143,-94.8974 143,-75.97"/>
<polygon fill="black" stroke="black" points="146.5,-75.8168 143,-65.8168 139.5,-75.8168 146.5,-75.8168"/>
<text text-anchor="middle" x="151" y="-88.3" font-family="Helvetica,sans-Serif" font-size="14.00"> !a</text>
</g>
<!-- 2&#45;&gt;0 -->
<g id="edge6" class="edge"><title>2&#45;&gt;0</title>
<path fill="none" stroke="black" d="M179.772,-65.8597C193.605,-80.2214 207.736,-98.3644 215,-118 230.111,-158.85 231.465,-175.676 215,-216 204.617,-241.43 184.306,-263.894 164.854,-281.056"/>
<polygon fill="black" stroke="black" points="162.515,-278.451 157.179,-287.604 167.058,-283.776 162.515,-278.451"/>
<text text-anchor="middle" x="232" y="-163.3" font-family="Helvetica,sans-Serif" font-size="14.00"> a</text>
</g>
<!-- 2&#45;&gt;2 -->
<g id="edge5" class="edge"><title>2&#45;&gt;2</title>
<path fill="none" stroke="black" d="M182.162,-43.7628C192.332,-43.1013 200,-39.5137 200,-33 200,-28.929 197.005,-26.0009 192.275,-24.2158"/>
<polygon fill="black" stroke="black" points="192.648,-20.7225 182.162,-22.2372 191.304,-27.5923 192.648,-20.7225"/>
<text text-anchor="middle" x="208" y="-29.3" font-family="Helvetica,sans-Serif" font-size="14.00"> !a</text>
</g>
</g>
</svg>
