<?xml version="1.0" encoding="UTF-8" standalone="no"?>
<!DOCTYPE svg PUBLIC "-//W3C//DTD SVG 1.1//EN"
 "http://www.w3.org/Graphics/SVG/1.1/DTD/svg11.dtd">
<!-- Generated by graphviz version 2.36.0 (20140111.2315)
 -->
<!-- Title: DRA Pages: 1 -->
<svg width="289pt" height="226pt"
 viewBox="0.00 0.00 289.00 226.00" xmlns="http://www.w3.org/2000/svg" xmlns:xlink="http://www.w3.org/1999/xlink">
<g id="graph0" class="graph" transform="scale(1 1) rotate(0) translate(4 222)">
<title>DRA</title>
<polygon fill="white" stroke="none" points="-4,4 -4,-222 285,-222 285,4 -4,4"/>
<!-- type -->
<g id="node1" class="node"><title>type</title>
<ellipse fill="none" stroke="black" cx="29" cy="-199" rx="29.3479" ry="18"/>
<text text-anchor="middle" x="29" y="-195.3" font-family="Helvetica,sans-Serif" font-size="14.00">DRA</text>
</g>
<!-- comment -->
<g id="node2" class="node"><title>comment</title>
<polygon fill="none" stroke="black" points="179,-217 77,-217 77,-181 179,-181 179,-217"/>
<text text-anchor="middle" x="128" y="-195.3" font-family="Helvetica,sans-Serif" font-size="14.00">Safra[NBA=2]</text>
</g>
<!-- 0 -->
<g id="node3" class="node"><title>0</title>
<polygon fill="none" stroke="black" points="251,-218 197,-218 197,-180 251,-180 251,-218"/>
<text text-anchor="middle" x="224" y="-202.8" font-family="Helvetica,sans-Serif" font-size="14.00">0</text>
<text text-anchor="middle" x="224" y="-187.8" font-family="Helvetica,sans-Serif" font-size="14.00"> +0</text>
</g>
<!-- 0&#45;&gt;0 -->
<g id="edge2" class="edge"><title>0&#45;&gt;0</title>
<path fill="none" stroke="black" d="M251.241,-207.242C261.024,-207.419 269,-204.672 269,-199 269,-195.544 266.038,-193.173 261.51,-191.889"/>
<polygon fill="black" stroke="black" points="261.564,-188.374 251.241,-190.758 260.797,-195.332 261.564,-188.374"/>
<text text-anchor="middle" x="275" y="-195.3" font-family="Helvetica,sans-Serif" font-size="14.00"> a</text>
</g>
<!-- 2 -->
<g id="node4" class="node"><title>2</title>
<polygon fill="grey" stroke="black" points="186,-128 132,-128 132,-90 186,-90 186,-128"/>
<text text-anchor="middle" x="159" y="-112.8" font-family="Helvetica,sans-Serif" font-size="14.00">2</text>
<text text-anchor="middle" x="159" y="-97.8" font-family="Helvetica,sans-Serif" font-size="14.00"> &#45;0</text>
</g>
<!-- 0&#45;&gt;2 -->
<g id="edge1" class="edge"><title>0&#45;&gt;2</title>
<path fill="none" stroke="black" d="M210.532,-179.766C201.294,-167.259 188.888,-150.463 178.563,-136.486"/>
<polygon fill="black" stroke="black" points="181.207,-134.174 172.451,-128.21 175.577,-138.333 181.207,-134.174"/>
<text text-anchor="middle" x="205" y="-150.3" font-family="Helvetica,sans-Serif" font-size="14.00"> !a</text>
</g>
<!-- 2&#45;&gt;2 -->
<g id="edge5" class="edge"><title>2&#45;&gt;2</title>
<path fill="none" stroke="black" d="M186.241,-117.242C196.024,-117.419 204,-114.672 204,-109 204,-105.544 201.038,-103.173 196.51,-101.889"/>
<polygon fill="black" stroke="black" points="196.564,-98.3739 186.241,-100.758 195.797,-105.332 196.564,-98.3739"/>
<text text-anchor="middle" x="212" y="-105.3" font-family="Helvetica,sans-Serif" font-size="14.00"> !a</text>
</g>
<!-- 1 -->
<g id="node5" class="node"><title>1</title>
<polygon fill="none" stroke="black" points="221,-38 167,-38 167,-0 221,-0 221,-38"/>
<text text-anchor="middle" x="194" y="-22.8" font-family="Helvetica,sans-Serif" font-size="14.00">1</text>
<text text-anchor="middle" x="194" y="-7.8" font-family="Helvetica,sans-Serif" font-size="14.00"> &#45;0</text>
</g>
<!-- 2&#45;&gt;1 -->
<g id="edge6" class="edge"><title>2&#45;&gt;1</title>
<path fill="none" stroke="black" d="M154.626,-89.99C153.002,-79.6533 152.502,-66.6533 157,-56 158.482,-52.491 160.491,-49.1549 162.812,-46.0309"/>
<polygon fill="black" stroke="black" points="165.625,-48.1306 169.536,-38.2844 160.338,-43.542 165.625,-48.1306"/>
<text text-anchor="middle" x="163" y="-60.3" font-family="Helvetica,sans-Serif" font-size="14.00"> a</text>
</g>
<!-- 1&#45;&gt;0 -->
<g id="edge4" class="edge"><title>1&#45;&gt;0</title>
<path fill="none" stroke="black" d="M206.003,-38.1097C214.283,-51.7386 224.567,-71.2223 229,-90 235.263,-116.531 232.811,-147.719 229.516,-169.741"/>
<polygon fill="black" stroke="black" points="226.038,-169.319 227.865,-179.755 232.945,-170.457 226.038,-169.319"/>
<text text-anchor="middle" x="238" y="-105.3" font-family="Helvetica,sans-Serif" font-size="14.00"> a</text>
</g>
<!-- 1&#45;&gt;2 -->
<g id="edge3" class="edge"><title>1&#45;&gt;2</title>
<path fill="none" stroke="black" d="M186.757,-38.2103C181.926,-50.3583 175.482,-66.5598 170.019,-80.2945"/>
<polygon fill="black" stroke="black" points="166.696,-79.1808 166.252,-89.7663 173.2,-81.7678 166.696,-79.1808"/>
<text text-anchor="middle" x="187" y="-60.3" font-family="Helvetica,sans-Serif" font-size="14.00"> !a</text>
</g>
</g>
</svg>
