<?xml version="1.0" encoding="UTF-8" standalone="no"?>
<!DOCTYPE svg PUBLIC "-//W3C//DTD SVG 1.1//EN"
 "http://www.w3.org/Graphics/SVG/1.1/DTD/svg11.dtd">
<!-- Generated by graphviz version 2.36.0 (20140111.2315)
 -->
<!-- Title: DRA Pages: 1 -->
<svg width="317pt" height="268pt"
 viewBox="0.00 0.00 317.00 268.00" xmlns="http://www.w3.org/2000/svg" xmlns:xlink="http://www.w3.org/1999/xlink">
<g id="graph0" class="graph" transform="scale(1 1) rotate(0) translate(4 264)">
<title>DRA</title>
<polygon fill="white" stroke="none" points="-4,4 -4,-264 313,-264 313,4 -4,4"/>
<!-- type -->
<g id="node1" class="node"><title>type</title>
<ellipse fill="none" stroke="black" cx="29" cy="-227" rx="29.3479" ry="18"/>
<text text-anchor="middle" x="29" y="-223.3" font-family="Helvetica,sans-Serif" font-size="14.00">DRA</text>
</g>
<!-- comment -->
<g id="node2" class="node"><title>comment</title>
<polygon fill="none" stroke="black" points="179,-245 77,-245 77,-209 179,-209 179,-245"/>
<text text-anchor="middle" x="128" y="-223.3" font-family="Helvetica,sans-Serif" font-size="14.00">Safra[NBA=2]</text>
</g>
<!-- 0 -->
<g id="node3" class="node"><title>0</title>
<polygon fill="grey" stroke="black" points="263,-259.5 197,-259.5 197,-194.5 263,-194.5 263,-259.5"/>
<polygon fill="none" stroke="black" points="207,-231 207,-253 226,-253 226,-231 207,-231"/>
<text text-anchor="start" x="212.5" y="-238.3" font-family="Helvetica,sans-Serif" font-size="14.00">0</text>
<polygon fill="red" stroke="none" points="228,-231 228,-253 253,-253 253,-231 228,-231"/>
<text text-anchor="start" x="232" y="-238.3" font-family="Helvetica,sans-Serif" font-size="14.00"> &#45;0</text>
<polygon fill="none" stroke="black" points="211,-204 211,-225 249,-225 249,-204 211,-204"/>
<text text-anchor="start" x="215.5" y="-210.8" font-family="Helvetica,sans-Serif" font-size="14.00">0 {0}</text>
</g>
<!-- 0&#45;&gt;0 -->
<g id="edge1" class="edge"><title>0&#45;&gt;0</title>
<path fill="none" stroke="black" d="M263.354,-237.851C273.278,-237.527 281,-233.91 281,-227 281,-222.681 277.984,-219.649 273.299,-217.903"/>
<polygon fill="black" stroke="black" points="273.81,-214.439 263.354,-216.149 272.595,-221.333 273.81,-214.439"/>
<text text-anchor="middle" x="289" y="-223.3" font-family="Helvetica,sans-Serif" font-size="14.00"> !a</text>
</g>
<!-- 1 -->
<g id="node4" class="node"><title>1</title>
<polygon fill="none" stroke="black" points="279,-141.5 179,-141.5 179,-0.5 279,-0.5 279,-141.5"/>
<polygon fill="none" stroke="black" points="189,-113 189,-135 223,-135 223,-113 189,-113"/>
<text text-anchor="start" x="202" y="-120.3" font-family="Helvetica,sans-Serif" font-size="14.00">1</text>
<polygon fill="green" stroke="none" points="225,-113 225,-135 269,-135 269,-113 225,-113"/>
<text text-anchor="start" x="237" y="-120.3" font-family="Helvetica,sans-Serif" font-size="14.00"> +0</text>
<polygon fill="none" stroke="black" points="193,-86 193,-107 265,-107 265,-86 193,-86"/>
<text text-anchor="start" x="200.5" y="-92.8" font-family="Helvetica,sans-Serif" font-size="14.00">Cycle (0)</text>
<polygon fill="none" stroke="black" points="193,-10 193,-84 265,-84 265,-10 193,-10"/>
<polygon fill="none" stroke="black" points="198,-15 198,-79 260,-79 260,-15 198,-15"/>
<polygon fill="none" stroke="black" points="203,-53 203,-74 255,-74 255,-53 203,-53"/>
<text text-anchor="start" x="208.5" y="-59.8" font-family="Helvetica,sans-Serif" font-size="14.00">0 {0,1}</text>
<polygon fill="none" stroke="black" points="203,-20 203,-51 255,-51 255,-20 203,-20"/>
<polygon fill="none" stroke="black" points="208,-25 208,-46 250,-46 250,-25 208,-25"/>
<text text-anchor="start" x="212.5" y="-31.8" font-family="Helvetica,sans-Serif" font-size="14.00">1 {1}!</text>
</g>
<!-- 0&#45;&gt;1 -->
<g id="edge2" class="edge"><title>0&#45;&gt;1</title>
<path fill="none" stroke="black" d="M217.522,-194.392C215.644,-188.374 214.002,-182.061 213,-176 211.697,-168.12 211.306,-159.898 211.553,-151.68"/>
<polygon fill="black" stroke="black" points="215.047,-151.874 212.153,-141.682 208.06,-151.455 215.047,-151.874"/>
<text text-anchor="middle" x="219" y="-164.3" font-family="Helvetica,sans-Serif" font-size="14.00"> a</text>
</g>
<!-- 1&#45;&gt;0 -->
<g id="edge3" class="edge"><title>1&#45;&gt;0</title>
<path fill="none" stroke="black" d="M229.452,-141.627C229.547,-156.207 229.644,-171.142 229.729,-184.316"/>
<polygon fill="black" stroke="black" points="226.23,-184.487 229.795,-194.464 233.23,-184.442 226.23,-184.487"/>
<text text-anchor="middle" x="237" y="-164.3" font-family="Helvetica,sans-Serif" font-size="14.00"> !a</text>
</g>
<!-- 1&#45;&gt;1 -->
<g id="edge4" class="edge"><title>1&#45;&gt;1</title>
<path fill="none" stroke="black" d="M279.114,-88.3672C289.518,-86.5391 297,-80.75 297,-71 297,-64.6016 293.778,-59.909 288.622,-56.9222"/>
<polygon fill="black" stroke="black" points="289.709,-53.5946 279.114,-53.6328 287.42,-60.2099 289.709,-53.5946"/>
<text text-anchor="middle" x="303" y="-67.3" font-family="Helvetica,sans-Serif" font-size="14.00"> a</text>
</g>
</g>
</svg>
