<?xml version="1.0" encoding="UTF-8" standalone="no"?>
<!DOCTYPE svg PUBLIC "-//W3C//DTD SVG 1.1//EN"
 "http://www.w3.org/Graphics/SVG/1.1/DTD/svg11.dtd">
<!-- Generated by graphviz version 2.36.0 (20140111.2315)
 -->
<!-- Title: DRA Pages: 1 -->
<svg width="315pt" height="342pt"
 viewBox="0.00 0.00 315.00 342.00" xmlns="http://www.w3.org/2000/svg" xmlns:xlink="http://www.w3.org/1999/xlink">
<g id="graph0" class="graph" transform="scale(1 1) rotate(0) translate(4 338)">
<title>DRA</title>
<polygon fill="white" stroke="none" points="-4,4 -4,-338 311,-338 311,4 -4,4"/>
<!-- type -->
<g id="node1" class="node"><title>type</title>
<ellipse fill="none" stroke="black" cx="29" cy="-285" rx="29.3479" ry="18"/>
<text text-anchor="middle" x="29" y="-281.3" font-family="Helvetica,sans-Serif" font-size="14.00">DRA</text>
</g>
<!-- comment -->
<g id="node2" class="node"><title>comment</title>
<polygon fill="none" stroke="black" points="179,-303 77,-303 77,-267 179,-267 179,-303"/>
<text text-anchor="middle" x="128" y="-281.3" font-family="Helvetica,sans-Serif" font-size="14.00">Safra[NBA=2]</text>
</g>
<!-- 0 -->
<g id="node3" class="node"><title>0</title>
<polygon fill="none" stroke="black" points="277,-334 197,-334 197,-236 277,-236 277,-334"/>
<polygon fill="none" stroke="black" points="207,-306 207,-328 231,-328 231,-306 207,-306"/>
<text text-anchor="start" x="215" y="-313.3" font-family="Helvetica,sans-Serif" font-size="14.00">0</text>
<polygon fill="green" stroke="none" points="233,-306 233,-328 267,-328 267,-306 233,-306"/>
<text text-anchor="start" x="240" y="-313.3" font-family="Helvetica,sans-Serif" font-size="14.00"> +0</text>
<polygon fill="none" stroke="black" points="211,-279 211,-300 263,-300 263,-279 211,-279"/>
<text text-anchor="start" x="216.5" y="-285.8" font-family="Helvetica,sans-Serif" font-size="14.00">0 {0,1}</text>
<polygon fill="none" stroke="black" points="211,-246 211,-277 263,-277 263,-246 211,-246"/>
<polygon fill="none" stroke="black" points="216,-251 216,-272 258,-272 258,-251 216,-251"/>
<text text-anchor="start" x="220.5" y="-257.8" font-family="Helvetica,sans-Serif" font-size="14.00">1 {1}!</text>
</g>
<!-- 0&#45;&gt;0 -->
<g id="edge2" class="edge"><title>0&#45;&gt;0</title>
<path fill="none" stroke="black" d="M277.119,-298.709C287.332,-297.808 295,-293.238 295,-285 295,-279.722 291.853,-275.95 286.906,-273.684"/>
<polygon fill="black" stroke="black" points="287.664,-270.266 277.119,-271.291 286.001,-277.066 287.664,-270.266"/>
<text text-anchor="middle" x="301" y="-281.3" font-family="Helvetica,sans-Serif" font-size="14.00"> a</text>
</g>
<!-- 2 -->
<g id="node4" class="node"><title>2</title>
<polygon fill="grey" stroke="black" points="200,-183.5 134,-183.5 134,-118.5 200,-118.5 200,-183.5"/>
<polygon fill="none" stroke="black" points="144,-155 144,-177 163,-177 163,-155 144,-155"/>
<text text-anchor="start" x="149.5" y="-162.3" font-family="Helvetica,sans-Serif" font-size="14.00">2</text>
<polygon fill="red" stroke="none" points="165,-155 165,-177 190,-177 190,-155 165,-155"/>
<text text-anchor="start" x="169" y="-162.3" font-family="Helvetica,sans-Serif" font-size="14.00"> &#45;0</text>
<polygon fill="none" stroke="black" points="148,-128 148,-149 186,-149 186,-128 148,-128"/>
<text text-anchor="start" x="152.5" y="-134.8" font-family="Helvetica,sans-Serif" font-size="14.00">0 {0}</text>
</g>
<!-- 0&#45;&gt;2 -->
<g id="edge1" class="edge"><title>0&#45;&gt;2</title>
<path fill="none" stroke="black" d="M211.53,-235.972C204.035,-221.837 195.908,-206.511 188.673,-192.87"/>
<polygon fill="black" stroke="black" points="191.604,-190.925 183.827,-183.73 185.42,-194.205 191.604,-190.925"/>
<text text-anchor="middle" x="210" y="-206.3" font-family="Helvetica,sans-Serif" font-size="14.00"> !a</text>
</g>
<!-- 2&#45;&gt;2 -->
<g id="edge5" class="edge"><title>2&#45;&gt;2</title>
<path fill="none" stroke="black" d="M200.354,-161.851C210.278,-161.527 218,-157.91 218,-151 218,-146.681 214.984,-143.649 210.299,-141.903"/>
<polygon fill="black" stroke="black" points="210.81,-138.439 200.354,-140.149 209.595,-145.333 210.81,-138.439"/>
<text text-anchor="middle" x="226" y="-147.3" font-family="Helvetica,sans-Serif" font-size="14.00"> !a</text>
</g>
<!-- 1 -->
<g id="node5" class="node"><title>1</title>
<polygon fill="none" stroke="black" points="241,-65.5 163,-65.5 163,-0.5 241,-0.5 241,-65.5"/>
<polygon fill="none" stroke="black" points="173,-37 173,-59 198,-59 198,-37 173,-37"/>
<text text-anchor="start" x="181.5" y="-44.3" font-family="Helvetica,sans-Serif" font-size="14.00">1</text>
<polygon fill="red" stroke="none" points="200,-37 200,-59 231,-59 231,-37 200,-37"/>
<text text-anchor="start" x="207" y="-44.3" font-family="Helvetica,sans-Serif" font-size="14.00"> &#45;0</text>
<polygon fill="none" stroke="black" points="177,-10 177,-31 227,-31 227,-10 177,-10"/>
<text text-anchor="start" x="181.5" y="-16.8" font-family="Helvetica,sans-Serif" font-size="14.00">0 {0,1}</text>
</g>
<!-- 2&#45;&gt;1 -->
<g id="edge6" class="edge"><title>2&#45;&gt;1</title>
<path fill="none" stroke="black" d="M162.42,-118.494C161.865,-107.363 162.482,-94.9064 166,-84 167.018,-80.8442 168.317,-77.7195 169.815,-74.6647"/>
<polygon fill="black" stroke="black" points="172.977,-76.1818 174.819,-65.7484 166.873,-72.7556 172.977,-76.1818"/>
<text text-anchor="middle" x="172" y="-88.3" font-family="Helvetica,sans-Serif" font-size="14.00"> a</text>
</g>
<!-- 1&#45;&gt;0 -->
<g id="edge4" class="edge"><title>1&#45;&gt;0</title>
<path fill="none" stroke="black" d="M221.789,-65.8284C230.099,-81.0193 238.799,-99.817 243,-118 251.112,-153.116 249.874,-193.507 246.482,-225.654"/>
<polygon fill="black" stroke="black" points="242.982,-225.45 245.314,-235.785 249.936,-226.252 242.982,-225.45"/>
<text text-anchor="middle" x="255" y="-147.3" font-family="Helvetica,sans-Serif" font-size="14.00"> a</text>
</g>
<!-- 1&#45;&gt;2 -->
<g id="edge3" class="edge"><title>1&#45;&gt;2</title>
<path fill="none" stroke="black" d="M192.448,-65.6592C188.475,-78.8257 183.809,-94.2916 179.564,-108.359"/>
<polygon fill="black" stroke="black" points="176.102,-107.718 176.564,-118.302 182.803,-109.74 176.102,-107.718"/>
<text text-anchor="middle" x="194" y="-88.3" font-family="Helvetica,sans-Serif" font-size="14.00"> !a</text>
</g>
</g>
</svg>
